<svg width="3001" height="611" viewBox="0 0 3001 611" fill="none" xmlns="http://www.w3.org/2000/svg">
<path d="M2991.09 404.005L1.21132 239.13" stroke="#006C6D" stroke-opacity="0.5" stroke-linecap="square"/>
<path d="M2989.22 418.579L2680.65 427.649L1693.47 477.534L509.813 448.51L10.7983 497.488L1613.91 336.647" stroke="#006C6D" stroke-opacity="0.5" stroke-linecap="square"/>
<path d="M1777.5 470.81L1614.09 329.3" stroke="#006C6D" stroke-opacity="0.5" stroke-linecap="square"/>
<path d="M859.894 285.309L1239.81 1.73519" stroke="#006C6D" stroke-opacity="0.5" stroke-linecap="square"/>
<path d="M2992.3 343.221L2693.64 176.498L2637.04 170.78L2434.73 188.235L895.69 286.944" stroke="#006C6D" stroke-opacity="0.5" stroke-linecap="square"/>
<path d="M2671.64 172.326L2882.84 61.7479" stroke="#006C6D" stroke-opacity="0.5" stroke-linecap="square"/>
<path d="M2719.43 194.248L2621.62 244.674L2578.82 246.175L2483.46 235.369L2471.23 223.363L2566.6 177.74" stroke="#006C6D" stroke-opacity="0.5" stroke-linecap="square"/>
<path d="M2563.73 245.037L2523.65 248.881V238.828" stroke="#006C6D" stroke-opacity="0.5"/>
<path d="M2525.52 249.569L2298.24 365.729" stroke="#006C6D" stroke-opacity="0.5" stroke-linecap="square"/>
<path d="M2901.34 606.907L2637.61 432.216L2457.36 385.37V375.698" stroke="#006C6D" stroke-opacity="0.5" stroke-linecap="square"/>
<path d="M2662.39 449.933L2679.35 428.771L2662.39 386.447L2771.41 250.407L2815.01 246.175" stroke="#006C6D" stroke-opacity="0.5"/>
<path d="M2815.01 550.409L2745.15 585.352L2759.6 594.39L2711.43 599.812L2684.93 585.352L1885.14 486.546L1839.37 479.316L1743.01 484.136L1718.92 501.005L1822.5 603.427" stroke="#006C6D" stroke-opacity="0.5"/>
<path d="M2745.64 586.416H2691.68" stroke="#006C6D" stroke-opacity="0.5" stroke-linecap="square"/>
<path d="M2318.61 605.36L2333.7 465.888L2366.4 445.359L2323.64 383.17L2333.7 350.566" stroke="#006C6D" stroke-opacity="0.5" stroke-linecap="round" stroke-linejoin="round"/>
<path d="M2318.61 384.203L2292.04 363.613L1770.24 251.578C1770.24 251.578 1741.25 215.243 1729.17 215.243C1717.09 215.243 1671.19 218.876 1671.19 218.876L1717.09 256.423L1615.63 332.728" stroke="#006C6D" stroke-opacity="0.5"/>
<path d="M2050.37 601.494L1865.37 474.774V468.104" stroke="#006C6D" stroke-opacity="0.5"/>
<path d="M1723.88 492.551L1704.7 477.681" stroke="#006C6D" stroke-opacity="0.5" stroke-linecap="square"/>
<path d="M1278.01 610L952.463 496.316L916.291 490.874L749.899 422.543L535.278 357.235C535.278 357.235 501.517 333.652 501.517 313.092C501.517 292.532 518.397 271.972 518.397 271.972L566.627 215.13L414.704 90.562L511.163 5.29912L684.789 19.8119" stroke="#006C6D" stroke-opacity="0.5"/>
<path fill-rule="evenodd" clip-rule="evenodd" d="M732.278 13.4173C710.142 13.4173 692.196 17.918 692.196 23.4699C692.196 29.0218 710.142 33.5225 732.278 33.5225C754.415 33.5225 772.361 29.0218 772.361 23.4699C772.361 17.918 754.415 13.4173 732.278 13.4173Z" stroke="#006C6D" stroke-opacity="0.5"/>
<path d="M775.444 28.1099L1574.68 98.704L1904.48 128.872L1988.74 140.94L2202.99 202.483" stroke="#006C6D" stroke-opacity="0.5"/>
<path d="M1461.14 4.44256L1706.91 214.942" stroke="#006C6D" stroke-opacity="0.5" stroke-linecap="square"/>
<path d="M1738.62 213.008L2303.53 0.961066" stroke="#006C6D" stroke-opacity="0.5" stroke-linecap="square"/>
<path d="M1669.92 218.42L4.2945 89.5018" stroke="#006C6D" stroke-opacity="0.5" stroke-linecap="square"/>
<path d="M2031.87 504.835L2085.82 475.137L2074.09 459.985" stroke="#006C6D" stroke-opacity="0.5"/>
<path d="M2315.53 578.683L2034.95 590.669" stroke="#006C6D" stroke-opacity="0.5"/>
<path d="M2312.44 541.565L1980.99 555.098" stroke="#006C6D" stroke-opacity="0.5"/>
<path d="M1590.96 601.494L1759 546.592" stroke="#006C6D" stroke-opacity="0.5"/>
<path d="M1896.2 498.263L1837.76 503.128C1837.76 503.128 1862.11 522.586 1874.29 531.708C1886.46 540.829 1823.15 545.086 1810.97 536.573C1798.79 528.059 1774.44 507.992 1774.44 507.992L1728.17 511.641" stroke="#006C6D" stroke-opacity="0.5"/>
<path d="M1925.49 525.714L1871.54 531.127" stroke="#006C6D" stroke-opacity="0.5"/>
<path d="M1809.87 535.397L1768.95 539.632L1496.92 536.607L1506.55 501.518L1183.97 493.049V385.364" stroke="#006C6D" stroke-opacity="0.5"/>
<path d="M1714.29 491.688L1654.29 498.493L1503.09 500.968" stroke="#006C6D" stroke-opacity="0.5"/>
<path d="M1442.87 603.427L1474.07 576.843L1339.68 558.113L1399.68 428.818L1382.88 360.546L1380.48 328.524L1447.67 253.606L1783.67 121.29" stroke="#006C6D" stroke-opacity="0.5"/>
<path d="M1473.8 575.203L1500.01 536.926" stroke="#006C6D" stroke-opacity="0.5"/>
<path d="M1419.84 602.989L1221.1 586.028L1194.76 604.2" stroke="#006C6D" stroke-opacity="0.5"/>
<path d="M1342.76 558.264L1160.81 535.911L1187.15 493.623L1139.27 561.284" stroke="#006C6D" stroke-opacity="0.5"/>
<path d="M1200.93 596.082C1200.93 596.082 1058.77 593.638 1044.31 580.807C1029.85 567.977 1061.18 550.869 1078.05 546.592" stroke="#006C6D" stroke-opacity="0.5"/>
<path d="M1103.81 603.427L884.899 587.752L947.445 496.715" stroke="#006C6D" stroke-opacity="0.5"/>
<path d="M1187.06 492.748L1060.22 499.422L997.995 496.388L1024.32 471.513L1031.5 463.018L964.491 459.985L935.773 492.141" stroke="#006C6D" stroke-opacity="0.5"/>
<path d="M935.773 492.849L581.41 484.729H366.864L178.835 487.228" stroke="#006C6D" stroke-opacity="0.5"/>
<path d="M924.981 519.527L649.031 499.422" stroke="#006C6D" stroke-opacity="0.5"/>
<path d="M6.17361 595.308L305.588 561.518L863.368 459.545L1080.69 276.718" stroke="#006C6D" stroke-opacity="0.5"/>
<path d="M887.982 567.855L738.445 557.03L810.802 492.075" stroke="#006C6D" stroke-opacity="0.5"/>
<path d="M914.19 539.632L604.387 519.976L561.159 517.594" stroke="#006C6D" stroke-opacity="0.5"/>
<path d="M743.07 601.494L706.071 581.684L740.603 555.871" stroke="#006C6D" stroke-opacity="0.5"/>
<path d="M710.696 581.775L659.822 590.242L558.075 605.36" stroke="#006C6D" stroke-opacity="0.5"/>
<path d="M716.862 572.495L548.825 560.435L590.226 536.917L602.402 519.43L607.273 506.767" stroke="#006C6D" stroke-opacity="0.5"/>
<path d="M649.03 567.855L662.905 552.39" stroke="#006C6D" stroke-opacity="0.5"/>
<path d="M887.982 586.801L866.4 603.427" stroke="#006C6D" stroke-opacity="0.5"/>
<path d="M505.659 601.494L189.626 574.043" stroke="#006C6D" stroke-opacity="0.5"/>
<path d="M218.917 601.494L284.251 563.948L368.943 487.038L446.375 455.547L601.24 382.271" stroke="#006C6D" stroke-opacity="0.5"/>
<path d="M659.822 589.895L576.574 581.775" stroke="#006C6D" stroke-opacity="0.5"/>
<path d="M496.41 600.721L550.367 560.51" stroke="#006C6D" stroke-opacity="0.5"/>
<path d="M291.374 562.443L44.2735 538.858L3.09012 554.582" stroke="#006C6D" stroke-opacity="0.5"/>
<path d="M331.456 519.602L210.593 508.676L167.082 483.183L29.2978 495.322L82.4776 522.029L43.8014 539.632" stroke="#006C6D" stroke-opacity="0.5"/>
<path d="M211.209 508.7L87.8793 522.232" stroke="#006C6D" stroke-opacity="0.5"/>
<path d="M43.1721 589.895L94.0457 544.271" stroke="#006C6D" stroke-opacity="0.5"/>
<path d="M132.586 579.843L146.461 561.671" stroke="#006C6D" stroke-opacity="0.5"/>
<path d="M16.9651 376.859L1685.37 388.845L2449.65 383.451" stroke="#006C6D" stroke-opacity="0.5"/>
<path d="M1722 431.76L786.235 421.707" stroke="#006C6D" stroke-opacity="0.5"/>
<path d="M992.812 458.052L1190.14 268.213" stroke="#006C6D" stroke-opacity="0.5"/>
<path d="M756.944 420.934L812.663 321.017L858.692 288.317" stroke="#006C6D" stroke-opacity="0.5"/>
<path d="M883.357 407.016L885.812 382.273L949.646 292.958" stroke="#006C6D" stroke-opacity="0.5"/>
<path d="M494.868 320.408L13.8818 293.73" stroke="#006C6D" stroke-opacity="0.5"/>
<path d="M681.405 276.332L1023.65 39.7099" stroke="#006C6D" stroke-opacity="0.5"/>
<path d="M2992.3 162.273L2886.28 152.616L2744.11 136.924L2406.77 95.881L2146.53 60.8741L1845.33 4.13877" stroke="#006C6D" stroke-opacity="0.5"/>
<path d="M2793.43 229.936L2896.37 153.874L2996.92 101.959" stroke="#006C6D" stroke-opacity="0.5"/>
<path d="M1569.38 96.5449L1743.58 2.59204" stroke="#006C6D" stroke-opacity="0.5"/>
<path d="M2152.11 452.639L2210.7 201.324" stroke="#006C6D" stroke-opacity="0.5"/>
<path d="M2590.15 417.068L2585.31 383.753L2735.51 240.8L2788.8 235.349" stroke="#006C6D" stroke-opacity="0.5"/>
<path d="M3000.01 356.753L2169.4 336.335L1868.45 328.528" stroke="#006C6D" stroke-opacity="0.5"/>
<path d="M1859.9 466.557L1823.75 418.822L1852.67 345.709L1857.49 325.769L1912.92 281.66L1994.87 216.402" stroke="#006C6D" stroke-opacity="0.5"/>
<path d="M1328.89 190.499V178.521L1405.97 129.41" stroke="#006C6D" stroke-opacity="0.5"/>
<path d="M1449.13 101.958L1518.51 54.4016" stroke="#006C6D" stroke-opacity="0.5"/>
<path d="M1612.55 4.52523L1542.62 44.9061L1518.51 45.5088" stroke="#006C6D" stroke-opacity="0.5"/>
<path d="M1507.71 55.0733L1486.19 56.335L1428.77 50.6575L1368.97 44.3492" stroke="#006C6D" stroke-opacity="0.5"/>
<path d="M1416.76 6.07355L1220.91 157.933L1187.06 267.44" stroke="#006C6D" stroke-opacity="0.5"/>
<path d="M1631.04 154.155L1510.4 158.795L909.565 158.132" stroke="#006C6D" stroke-opacity="0.5"/>
<path d="M564.241 210.604L753.861 45.1237" stroke="#006C6D" stroke-opacity="0.5"/>
<path d="M713.779 142.942L862.772 42.0078L877.191 37.777" stroke="#006C6D" stroke-opacity="0.5"/>
<path d="M866.4 41.6423L717.604 46.5301L422.412 91.1318" stroke="#006C6D" stroke-opacity="0.5"/>
<path d="M10.7988 119.357L442.637 66.2798L698.363 28.8843" stroke="#006C6D" stroke-opacity="0.5"/>
<path d="M228.167 472.744L258.005 381.44L305.249 311.903" stroke="#006C6D" stroke-opacity="0.5"/>
<path d="M510.284 340.514L286.876 338.89L82.6859 338.349L15.4232 337.807" stroke="#006C6D" stroke-opacity="0.5"/>
<path d="M69.3798 376.084L101.754 300.303" stroke="#006C6D" stroke-opacity="0.5"/>
<path d="M171.127 301.851L222 252.361" stroke="#006C6D" stroke-opacity="0.5"/>
<path d="M185.002 250.041L294.457 181.606" stroke="#006C6D" stroke-opacity="0.5"/>
<path d="M545.741 203.257C504.829 203.257 336.367 187.605 336.367 187.605L293.048 180.984L13.8812 155.7" stroke="#006C6D" stroke-opacity="0.5"/>
<path d="M1445.52 250.041L1438.34 201.622L1577.09 106.599" stroke="#006C6D" stroke-opacity="0.5"/>
<path d="M1312.96 260.094L1315.53 158.795" stroke="#006C6D" stroke-opacity="0.5"/>
<path d="M2508.23 162.273L2722.55 52.2911C2722.55 52.2911 2739.41 37.788 2773.13 35.3708C2806.84 32.9536 2876.68 35.3708 2876.68 35.3708" stroke="#006C6D" stroke-opacity="0.5"/>
<path d="M2989.22 69.2062L2967.58 71.0273L2794.49 49.7804L2688.71 52.2086L2301.65 6.07227" stroke="#006C6D" stroke-opacity="0.5"/>
<path d="M2238.44 337.808L2377.19 194.365" stroke="#006C6D" stroke-opacity="0.5"/>
<path opacity="0.4" d="M2367.58 323.116L2355.61 318.868L2446.56 192.041L2439.38 187.793" stroke="#006C6D" stroke-opacity="0.5"/>
<path d="M2992.3 526.872L2922.48 499.133L2780.42 461.142L2778.01 452.699V426.769L2799.68 394.205L2876.73 300.735L2893.58 299.529" stroke="#006C6D" stroke-opacity="0.5"/>
<path d="M1526.21 180.446L1636.82 150.236L1720.98 112.776L1891.71 11.2695L1908.54 2.20648" stroke="#006C6D" stroke-opacity="0.5"/>
<path d="M1543.17 208.67L1516.96 159.18" stroke="#006C6D" stroke-opacity="0.5"/>
<path d="M756.944 107.018L682.158 102.733L440.911 110.079" stroke="#006C6D" stroke-opacity="0.5"/>
<path d="M2155.2 407.016L1689.63 402.376" stroke="#006C6D" stroke-opacity="0.5"/>
<path d="M1948.62 405.47L1737.42 429.055" stroke="#006C6D" stroke-opacity="0.5"/>
<path d="M348.414 460.759L374.621 380.338" stroke="#006C6D" stroke-opacity="0.5"/>
<path d="M334.539 464.625L223.635 459.405L13.8813 456.506" stroke="#006C6D" stroke-opacity="0.5"/>
<path d="M425.495 68.3213L372.694 64.0361L274.293 63.4239L53.4905 50.5682L3.08994 46.283" stroke="#006C6D" stroke-opacity="0.5"/>
<path d="M414.703 91.1318L302.165 2.59188" stroke="#006C6D" stroke-opacity="0.5"/>
<path d="M72.4629 7.23276L6.17307 138.689" stroke="#006C6D" stroke-opacity="0.5"/>
<path d="M200.418 168.46L258.999 110.078" stroke="#006C6D" stroke-opacity="0.5"/>
<path d="M494.868 167.687L232.792 144.102" stroke="#006C6D" stroke-opacity="0.5"/>
<path d="M473.285 150.229L453.886 151.447L240.5 131.342" stroke="#006C6D" stroke-opacity="0.5"/>
<path d="M117.169 164.207L44.7131 134.049" stroke="#006C6D" stroke-opacity="0.5"/>
<path d="M232.792 108.532L7.71516 139.463" stroke="#006C6D" stroke-opacity="0.5"/>
<path d="M491.784 23.4722C477.414 26.51 357.663 48.9902 357.663 48.9902" stroke="#006C6D" stroke-opacity="0.5"/>
<path d="M345.331 41.6436L61.6718 28.1112" stroke="#006C6D" stroke-opacity="0.5"/>
<path d="M323.748 24.2441L75.5463 14.1916" stroke="#006C6D" stroke-opacity="0.5"/>
<path fill-rule="evenodd" clip-rule="evenodd" d="M1442.09 130.182L1478.42 104.604L1422.71 99.2506L1408.17 101.63L1376.68 125.423L1442.09 130.182Z" stroke="#006C6D" stroke-opacity="0.5"/>
<path d="M1241.01 139.463L1069.89 122.837" stroke="#006C6D" stroke-opacity="0.5"/>
<path d="M1165.47 132.116L1248.72 71.8008" stroke="#006C6D" stroke-opacity="0.5"/>
<path d="M928.064 229.936L567.324 214.47" stroke="#006C6D" stroke-opacity="0.5"/>
<path d="M1080.69 239.988L941.939 229.936" stroke="#006C6D" stroke-opacity="0.5"/>
<path d="M1970.2 216.018L1671.13 165.755" stroke="#006C6D" stroke-opacity="0.5"/>
<path d="M1361.26 44.3486L1222.51 14.9642" stroke="#006C6D" stroke-opacity="0.5"/>
<path d="M1339.68 59.043L1205.56 29.6585" stroke="#006C6D" stroke-opacity="0.5"/>
<path d="M2042.66 159.567L1919.33 207.896" stroke="#006C6D" stroke-opacity="0.5"/>
<path d="M2192.2 195.912L2414.19 94.6131" stroke="#006C6D" stroke-opacity="0.5"/>
<path d="M1550.88 388.24C1550.88 385.215 1550.88 351.341 1550.88 351.341H1473.8V388.845" stroke="#006C6D" stroke-opacity="0.5"/>
<path d="M1267.27 369.513L1288.8 350.156L1276.84 343.502L1128.48 332.009" stroke="#006C6D" stroke-opacity="0.5"/>
<path d="M1099.18 350.566L775.882 325.822L746.93 343.324L505.66 331.253" stroke="#006C6D" stroke-opacity="0.5"/>
<path d="M505.659 339.8C493.627 339.8 308.331 378.792 308.331 378.792L337.209 338.582" stroke="#006C6D" stroke-opacity="0.5"/>
<path d="M131.045 379.563L97.0355 422.265L70.314 422.866L50.8802 455.344" stroke="#006C6D" stroke-opacity="0.5"/>
<path d="M69.3804 422.481L15.4235 414.701L41.229 378.791" stroke="#006C6D" stroke-opacity="0.5"/>
<path d="M2002.58 386.137L2021.08 351.339" stroke="#006C6D" stroke-opacity="0.5"/>
<path d="M2184.49 303.782L1994.87 297.209" stroke="#006C6D" stroke-opacity="0.5"/>
<path d="M1849.96 326.822L1806.54 330.461L1550.88 272.852" stroke="#006C6D" stroke-opacity="0.5"/>
<path d="M1612.55 330.461L1503.09 232.642" stroke="#006C6D" stroke-opacity="0.5"/>
<path d="M2483.56 234.575H2432.98L2213.78 205.191" stroke="#006C6D" stroke-opacity="0.5"/>
<path d="M2382.44 324.661C2382.44 322.237 2358.69 317.994 2358.69 317.994L2446.56 191.92L2441.81 185.858" stroke="#006C6D" stroke-opacity="0.5"/>
<path d="M2989.22 210.604L2897.31 274.299L2834.43 280.972L2611.91 254.28L2585.31 245.788" stroke="#006C6D" stroke-opacity="0.5"/>
<path d="M2650.06 317.703L2438.86 294.892" stroke="#006C6D" stroke-opacity="0.5"/>
<path d="M2489.73 343.993L2559.1 307.649" stroke="#006C6D" stroke-opacity="0.5"/>
<path d="M2831.97 343.221L2704.01 335.101" stroke="#006C6D" stroke-opacity="0.5"/>
<path d="M1315.01 311.13L1210.18 268.213" stroke="#006C6D" stroke-opacity="0.5"/>
<path d="M1319.64 260.092L1350.47 288.202L1288.8 298.369" stroke="#006C6D" stroke-opacity="0.5"/>
<path d="M975.855 199.239L918.325 194.365L561.158 214.47" stroke="#006C6D" stroke-opacity="0.5"/>
<path d="M915.731 160.341C915.731 162.783 915.731 195.139 915.731 195.139" stroke="#006C6D" stroke-opacity="0.5"/>
<path d="M793.943 198.618L596.615 181.219" stroke="#006C6D" stroke-opacity="0.5"/>
<path d="M972.771 191.657L827.859 178.898" stroke="#006C6D" stroke-opacity="0.5"/>
<path d="M1267.22 121.29L1099.18 105.825" stroke="#006C6D" stroke-opacity="0.5"/>
<path d="M1200.93 220.991L1108.88 217.95L1048.31 276.332" stroke="#006C6D" stroke-opacity="0.5"/>
<path d="M1066.81 260.094L903.399 245.402" stroke="#006C6D" stroke-opacity="0.5"/>
<path d="M1120.77 272.852L1168.56 219.882" stroke="#006C6D" stroke-opacity="0.5"/>
<path d="M302.165 308.422L331.002 284.837L465.577 289.675" stroke="#006C6D" stroke-opacity="0.5"/>
<path d="M254.935 305.717L269.651 281.316L299.082 283.756L245.125 278.266" stroke="#006C6D" stroke-opacity="0.5"/>
<path d="M98.6708 244.628L200.418 166.914" stroke="#006C6D" stroke-opacity="0.5"/>
<path d="M596.615 137.528L473.285 145.647" stroke="#006C6D" stroke-opacity="0.5"/>
<path d="M123.337 484.73L141.837 459.212" stroke="#006C6D" stroke-opacity="0.5"/>
<path d="M2073.69 299.144C2073.69 293.096 2090.45 281.001 2090.45 281.001L1977.91 275.559" stroke="#006C6D" stroke-opacity="0.5"/>
<path d="M2096.4 210.603L2058.08 251.918L2089.21 267.715L2192.2 270.146" stroke="#006C6D" stroke-opacity="0.5"/>
<path d="M2537.52 192.432L2449.65 98.4788" stroke="#006C6D" stroke-opacity="0.5"/>
<path d="M2646.98 48.851L2584.15 78.374L2004.24 6.07284L1965.58 25.9557" stroke="#006C6D" stroke-opacity="0.5"/>
<path d="M2411.11 94.6133L2545.23 33.5246" stroke="#006C6D" stroke-opacity="0.5"/>
<path d="M2371.02 50.9219C2371.02 48.5231 2443.48 21.5374 2443.48 21.5374" stroke="#006C6D" stroke-opacity="0.5"/>
<path d="M1842.25 105.438L1590.96 86.1056" stroke="#006C6D" stroke-opacity="0.5"/>
<path d="M1798.08 101.185L1863.83 63.2598L1778.59 53.6282L1695.79 95.1648" stroke="#006C6D" stroke-opacity="0.5"/>
<path d="M1834.54 41.551L1735.01 28.8848L1623.34 89.2002" stroke="#006C6D" stroke-opacity="0.5"/>
<path d="M1194.77 3.36524L1120.06 49.7617L946.564 34.0954L977.89 5.17289" stroke="#006C6D" stroke-opacity="0.5"/>
<path d="M590.449 483.957L713.779 408.176" stroke="#006C6D" stroke-opacity="0.5"/>
<path fill-rule="evenodd" clip-rule="evenodd" d="M2096.82 80.6851L2155.2 91.0556L2065.2 123.997L1936.29 104.476L2031.15 69.0946L2096.82 80.6851Z" stroke="#006C6D" stroke-opacity="0.5"/>
<path d="M1507.72 386.91L1496.92 416.294" stroke="#006C6D" stroke-opacity="0.5"/>
<path d="M997.438 183.152C1006.9 183.152 1080.26 181.928 1080.26 181.928L1099.18 175.806" stroke="#006C6D" stroke-opacity="0.5"/>
</svg>
